<svg width="24" height="24" viewBox="0 0 24 24" fill="none" xmlns="http://www.w3.org/2000/svg">
<path fill-rule="evenodd" clip-rule="evenodd" d="M18.1595 5.62501C17.0969 4.58813 15.416 3.86066 12.7643 4.02241C6.50271 4.40436 4 8.77348 4 12.1427C4 13.9504 4.33687 15.3468 4.94866 16.4289C5.55477 17.501 6.46992 18.3344 7.75113 18.9596C8.96707 19.5528 10.5066 19.8832 11.9926 19.9741C13.4915 20.0657 14.8126 19.9066 15.5942 19.6206C16.1129 19.4308 16.6872 19.6974 16.877 20.216C17.0668 20.7347 16.8002 21.309 16.2815 21.4988C15.1464 21.9142 13.5217 22.0713 11.8705 21.9703C10.2065 21.8686 8.39177 21.4975 6.87411 20.757C5.28023 19.9793 4.03907 18.8838 3.20765 17.4133C2.3819 15.9527 2 14.1928 2 12.1427C2 7.79635 5.24745 2.47721 12.6425 2.02612C15.7409 1.83713 18.0133 2.68785 19.5563 4.19363C21.0762 5.67685 21.7686 7.6789 21.9641 9.58578C22.1282 11.1877 21.7259 13.2429 20.8157 14.7922C20.3558 15.5749 19.7262 16.2964 18.9004 16.7341C18.0452 17.1874 17.0501 17.297 15.9879 16.9515C15.4207 16.7669 14.8671 16.4683 14.4525 15.9379C14.3136 15.7601 14.1997 15.5685 14.108 15.3644C12.863 17.0544 10.6861 17.3237 9.09548 16.4921C8.24947 16.0499 7.54783 15.2913 7.21495 14.2651C6.88232 13.2396 6.94436 12.0333 7.46044 10.7239C8.40335 8.33155 10.1595 7.19833 11.9105 6.78312C13.6059 6.38109 15.2853 6.64779 16.267 6.98992C16.77 7.16522 17.0473 7.70401 16.8976 8.2152C16.0315 11.1735 15.7271 12.8839 15.7946 13.8908C15.8263 14.3643 15.936 14.5882 16.0283 14.7063C16.1192 14.8225 16.2753 14.9418 16.6066 15.0495C17.1616 15.2301 17.5949 15.1625 17.9637 14.967C18.3618 14.756 18.7517 14.357 19.0913 13.779C19.78 12.6068 20.0964 10.9796 19.9745 9.78967C19.8105 8.18949 19.2451 6.68444 18.1595 5.62501ZM13.7861 13.666C13.777 12.4577 14.0898 10.8362 14.6917 8.65838C14.0197 8.55452 13.1891 8.53538 12.3719 8.72916C11.1726 9.01356 9.99372 9.75078 9.32113 11.4573C8.93874 12.4275 8.95584 13.15 9.11737 13.648C9.27864 14.1451 9.61024 14.5044 10.0221 14.7197C10.8784 15.1674 11.9949 14.972 12.5801 14.0583C12.8418 13.6497 13.3509 13.4955 13.7861 13.666Z" fill="black"/>
</svg>
